<svg xmlns="http://www.w3.org/2000/svg" viewBox="0 0 512 512">
  <defs>
    <linearGradient id="grad1" x1="0%" y1="0%" x2="100%" y2="100%">
      <stop offset="0%" style="stop-color:#00d4ff;stop-opacity:1" />
      <stop offset="100%" style="stop-color:#00ff9f;stop-opacity:1" />
    </linearGradient>
  </defs>
  <path d="M256 0c-40 0-160 30-160 150 0 140 60 260 160 362 100-102 160-222 160-362C416 30 296 0 256 0z" fill="url(#grad1)"/>
  <path d="M256 40c-5.5 0-10 4.5-10 10v380.5c-65.4-74.5-110-166.6-110-280.5 0-82.5 83.2-108.6 120-110zm10 390.5V50c36.8 1.4 120 27.5 120 110 0 113.9-44.6 206-110 280.5z" fill="rgba(255,255,255,0.2)"/>
  <circle cx="256" cy="200" r="40" fill="#0a0e27" opacity="0.8"/>
  <rect x="246" y="190" width="20" height="20" fill="#00d4ff"/>
</svg>
